<svg width="33" height="34" viewBox="0 0 33 34" fill="none" xmlns="http://www.w3.org/2000/svg">
<path d="M17.7712 3.54023C18.7535 3.53646 19.7358 3.54633 20.7179 3.56984L20.979 3.57927C21.2805 3.59004 21.578 3.6035 21.9374 3.61965C23.3697 3.68696 24.3469 3.9131 25.2044 4.24559C26.0928 4.5875 26.8413 5.05055 27.5897 5.79899C28.274 6.47151 28.8036 7.28501 29.1417 8.18293C29.4742 9.04039 29.7004 10.019 29.7677 11.4513C29.7838 11.8093 29.7973 12.1082 29.8081 12.4097L29.8161 12.6708C29.8401 13.6524 29.8504 14.6342 29.8471 15.6161L29.8484 16.6203V18.3837C29.8518 19.366 29.8414 20.3483 29.8175 21.3303L29.8094 21.5914C29.7986 21.893 29.7852 22.1904 29.769 22.5499C29.7017 23.9821 29.4729 24.9594 29.1417 25.8168C28.8047 26.7157 28.275 27.5299 27.5897 28.2021C26.9166 28.8864 26.1027 29.416 25.2044 29.7542C24.3469 30.0867 23.3697 30.3128 21.9374 30.3801C21.578 30.3963 21.2805 30.4097 20.979 30.4205L20.7179 30.4286C19.7358 30.4525 18.7535 30.4628 17.7712 30.4595L16.767 30.4609H15.005C14.0227 30.4642 13.0404 30.4539 12.0584 30.4299L11.7972 30.4218C11.4777 30.4103 11.1582 30.3968 10.8388 30.3815C9.40658 30.3142 8.42931 30.0853 7.5705 29.7542C6.67222 29.4168 5.85858 28.8871 5.18655 28.2021C4.50145 27.5295 3.97133 26.7154 3.63315 25.8168C3.30067 24.9594 3.07452 23.9821 3.00722 22.5499C2.99223 22.2304 2.97876 21.911 2.96683 21.5914L2.9601 21.3303C2.93529 20.3483 2.92407 19.366 2.92645 18.3837V15.6161C2.92269 14.6342 2.93257 13.6524 2.95607 12.6708L2.96549 12.4097C2.97626 12.1082 2.98972 11.8093 3.00587 11.4513C3.07318 10.0177 3.29932 9.04174 3.63181 8.18293C3.97018 7.28457 4.50134 6.47129 5.1879 5.80033C5.85946 5.11483 6.6726 4.58423 7.5705 4.24559C8.42931 3.9131 9.40523 3.68696 10.8388 3.61965L11.7972 3.57927L12.0584 3.57254C13.0399 3.54773 14.0218 3.53651 15.0037 3.53888L17.7712 3.54023ZM16.3874 10.2707C15.4957 10.2581 14.6103 10.4229 13.7827 10.7554C12.9552 11.088 12.2019 11.5817 11.5669 12.2078C10.9318 12.834 10.4275 13.5802 10.0832 14.4029C9.73903 15.2257 9.56177 16.1087 9.56177 17.0006C9.56177 17.8924 9.73903 18.7754 10.0832 19.5982C10.4275 20.4209 10.9318 21.1671 11.5669 21.7933C12.2019 22.4194 12.9552 22.9132 13.7827 23.2457C14.6103 23.5782 15.4957 23.743 16.3874 23.7304C18.1725 23.7304 19.8844 23.0213 21.1466 21.7591C22.4088 20.4969 23.1179 18.7849 23.1179 16.9999C23.1179 15.2148 22.4088 13.5029 21.1466 12.2407C19.8844 10.9785 18.1725 10.2707 16.3874 10.2707ZM16.3874 12.9629C16.9239 12.953 17.4569 13.0502 17.9554 13.2486C18.4539 13.447 18.9078 13.7428 19.2907 14.1186C19.6736 14.4945 19.9777 14.9428 20.1854 15.4375C20.3931 15.9322 20.5001 16.4633 20.5001 16.9999C20.5002 17.5364 20.3934 18.0676 20.1859 18.5623C19.9784 19.0571 19.6744 19.5056 19.2917 19.8815C18.9089 20.2575 18.455 20.5534 17.9566 20.752C17.4582 20.9506 16.9252 21.0479 16.3888 21.0382C15.3178 21.0382 14.2906 20.6127 13.5333 19.8554C12.776 19.0981 12.3505 18.0709 12.3505 16.9999C12.3505 15.9289 12.776 14.9017 13.5333 14.1444C14.2906 13.387 15.3178 12.9616 16.3888 12.9616L16.3874 12.9629ZM23.4545 8.25158C23.0202 8.26896 22.6095 8.4537 22.3084 8.7671C22.0073 9.0805 21.8391 9.49825 21.8391 9.93286C21.8391 10.3675 22.0073 10.7852 22.3084 11.0986C22.6095 11.412 23.0202 11.5968 23.4545 11.6141C23.9007 11.6141 24.3287 11.4369 24.6443 11.1213C24.9598 10.8058 25.1371 10.3778 25.1371 9.93151C25.1371 9.48525 24.9598 9.05727 24.6443 8.74172C24.3287 8.42616 23.9007 8.24889 23.4545 8.24889V8.25158Z" fill="#F0A48D"/>
</svg>
