<svg width="17" height="16" viewBox="0 0 17 16" fill="none" xmlns="http://www.w3.org/2000/svg">
<g clip-path="url(#clip0_201_14)">
<path d="M3.7959 0H12.2959C14.367 0 16.0459 1.67893 16.0459 3.75V12.25C16.0459 14.3211 14.367 16 12.2959 16H3.7959C1.72483 16 0.0458984 14.3211 0.0458984 12.25V3.75C0.0458984 1.67893 1.72483 0 3.7959 0Z" fill="black"/>
<path d="M3.7959 0H12.2959C14.367 0 16.0459 1.67893 16.0459 3.75V12.25C16.0459 14.3211 14.367 16 12.2959 16H3.7959C1.72483 16 0.0458984 14.3211 0.0458984 12.25V3.75C0.0458984 1.67893 1.72483 0 3.7959 0Z" fill="#FF8C09"/>
<path d="M3.57265 5.71318C3.56577 5.81237 3.56577 5.91156 3.56577 6.01168C3.56577 9.0615 5.88752 12.5789 10.133 12.5789V12.577C11.3871 12.5788 12.6153 12.2196 13.6709 11.5423C13.4885 11.5642 13.3053 11.5752 13.1215 11.5756C12.082 11.5764 11.0725 11.2278 10.255 10.5857C10.7367 10.5766 11.2034 10.4172 11.59 10.1298C11.9766 9.84244 12.2637 9.44144 12.4113 8.98287C12.0655 9.04955 11.709 9.03595 11.3693 8.94312C12.446 8.72556 13.2207 7.7795 13.2207 6.68075V6.6515C12.8997 6.83029 12.5405 6.92936 12.1732 6.94037C13.1873 6.26256 13.5 4.91337 12.8876 3.8585C12.3081 4.57156 11.5852 5.15475 10.7656 5.57019C9.94608 5.98562 9.04832 6.22401 8.13065 6.26987C8.22214 5.87602 8.20863 5.46505 8.09146 5.07806C7.97429 4.69107 7.75756 4.34163 7.46296 4.06468C6.53334 3.19081 5.07127 3.23562 4.1974 4.16475C3.68052 4.0627 3.18485 3.87321 2.73171 3.60443C2.90402 4.13885 3.26459 4.59248 3.74634 4.88093C3.2888 4.82703 2.84198 4.70455 2.4209 4.51762C2.73065 4.9815 3.12067 5.38632 3.57265 5.71318Z" fill="#2D2D2D"/>
</g>
<defs>
<clipPath id="clip0_201_14">
<rect width="16" height="16" fill="white" transform="matrix(-1 0 0 1 16.0459 0)"/>
</clipPath>
</defs>
</svg>
