<svg width="24" height="18" viewBox="0 0 24 18" fill="none" xmlns="http://www.w3.org/2000/svg">
<path d="M23.4266 3.24984C23.2895 2.74303 23.022 2.281 22.6507 1.90975C22.2794 1.53851 21.8174 1.27101 21.3106 1.13389C19.455 0.62793 11.9879 0.62793 11.9879 0.62793C11.9879 0.62793 4.52053 0.643284 2.66531 1.14924C2.15852 1.28638 1.6965 1.55389 1.32525 1.92514C0.954008 2.29638 0.686495 2.7584 0.549353 3.26519C-0.0118786 6.56196 -0.229616 11.5851 0.564708 14.7498C0.701849 15.2566 0.969362 15.7186 1.34061 16.0899C1.71185 16.4611 2.17387 16.7286 2.68066 16.8658C4.53603 17.3717 12.0033 17.3717 12.0033 17.3717C12.0033 17.3717 19.4705 17.3717 21.3259 16.8658C21.8327 16.7286 22.2947 16.4611 22.666 16.0899C23.0372 15.7186 23.3047 15.2566 23.4419 14.7498C24.0337 11.4485 24.2161 6.42845 23.4265 3.24999L23.4266 3.24984Z" fill="#FF8C09"/>
<path d="M9.61121 12.5876L15.8058 8.99967L9.61121 5.41162V12.5876Z" fill="#2D2D2D"/>
</svg>
