<svg width="23" height="22" viewBox="0 0 23 22" fill="none" xmlns="http://www.w3.org/2000/svg">
<path d="M11.9882 1.83414C12.6571 1.83157 13.326 1.83829 13.9948 1.8543L14.1726 1.86072C14.3779 1.86805 14.5805 1.87722 14.8253 1.88822C15.8006 1.93405 16.4661 2.08805 17.05 2.31447C17.655 2.5473 18.1647 2.86264 18.6744 3.3723C19.1404 3.83027 19.501 4.38425 19.7313 4.99572C19.9577 5.57964 20.1117 6.24605 20.1575 7.22139C20.1685 7.46522 20.1777 7.66872 20.185 7.87405L20.1905 8.05189C20.2068 8.72031 20.2138 9.38893 20.2116 10.0576L20.2125 10.7414V11.9422C20.2148 12.6111 20.2078 13.2801 20.1914 13.9488L20.1859 14.1266C20.1786 14.332 20.1694 14.5346 20.1584 14.7793C20.1126 15.7546 19.9568 16.4201 19.7313 17.0041C19.5018 17.6162 19.141 18.1706 18.6744 18.6284C18.216 19.0943 17.6617 19.455 17.05 19.6853C16.4661 19.9117 15.8006 20.0657 14.8253 20.1116C14.5805 20.1226 14.3779 20.1317 14.1726 20.1391L13.9948 20.1446C13.326 20.1608 12.6571 20.1679 11.9882 20.1656L11.3044 20.1666H10.1044C9.43551 20.1688 8.76659 20.1618 8.09786 20.1455L7.92002 20.14C7.70242 20.1321 7.48486 20.1229 7.26736 20.1125C6.29202 20.0666 5.62652 19.9108 5.04169 19.6853C4.42998 19.4555 3.87591 19.0948 3.41827 18.6284C2.95173 18.1703 2.59073 17.616 2.36044 17.0041C2.13402 16.4201 1.98002 15.7546 1.93419 14.7793C1.92398 14.5618 1.91482 14.3442 1.90669 14.1266L1.90211 13.9488C1.88521 13.2801 1.87757 12.6112 1.87919 11.9422V10.0576C1.87663 9.38894 1.88336 8.72032 1.89936 8.05189L1.90577 7.87405C1.91311 7.66872 1.92227 7.46522 1.93327 7.22139C1.97911 6.24514 2.13311 5.58055 2.35952 4.99572C2.58995 4.38395 2.95166 3.83013 3.41919 3.37322C3.87651 2.90641 4.43024 2.54508 5.04169 2.31447C5.62652 2.08805 6.29111 1.93405 7.26736 1.88822L7.92002 1.86072L8.09786 1.85614C8.76628 1.83924 9.4349 1.8316 10.1035 1.83322L11.9882 1.83414ZM11.0459 6.41747C10.4386 6.40888 9.83563 6.52107 9.27209 6.74753C8.70854 6.97399 8.19562 7.31019 7.76313 7.7366C7.33065 8.16301 6.98722 8.67113 6.75282 9.23142C6.51842 9.79171 6.39771 10.393 6.39771 11.0003C6.39771 11.6077 6.51842 12.209 6.75282 12.7693C6.98722 13.3296 7.33065 13.8377 7.76313 14.2641C8.19562 14.6905 8.70854 15.0267 9.27209 15.2532C9.83563 15.4796 10.4386 15.5918 11.0459 15.5832C12.2614 15.5832 13.4272 15.1003 14.2868 14.2408C15.1463 13.3813 15.6292 12.2155 15.6292 10.9999C15.6292 9.78431 15.1463 8.61852 14.2868 7.75898C13.4272 6.89944 12.2614 6.41747 11.0459 6.41747ZM11.0459 8.2508C11.4112 8.24407 11.7741 8.3102 12.1136 8.44533C12.453 8.58045 12.7622 8.78187 13.0229 9.0378C13.2836 9.29374 13.4908 9.59907 13.6322 9.93595C13.7736 10.2728 13.8465 10.6345 13.8465 10.9999C13.8466 11.3652 13.7738 11.7269 13.6325 12.0639C13.4912 12.4008 13.2842 12.7062 13.0236 12.9622C12.7629 13.2183 12.4538 13.4198 12.1144 13.555C11.775 13.6902 11.4121 13.7565 11.0468 13.7499C10.3174 13.7499 9.61796 13.4602 9.10223 12.9444C8.58651 12.4287 8.29677 11.7292 8.29677 10.9999C8.29677 10.2705 8.58651 9.57107 9.10223 9.05534C9.61796 8.53962 10.3174 8.24989 11.0468 8.24989L11.0459 8.2508ZM15.8584 5.04247C15.5626 5.05431 15.283 5.18011 15.0779 5.39353C14.8729 5.60695 14.7583 5.89143 14.7583 6.18739C14.7583 6.48335 14.8729 6.76783 15.0779 6.98125C15.283 7.19466 15.5626 7.32047 15.8584 7.3323C16.1623 7.3323 16.4537 7.21158 16.6686 6.9967C16.8835 6.78181 17.0042 6.49036 17.0042 6.18647C17.0042 5.88258 16.8835 5.59113 16.6686 5.37624C16.4537 5.16136 16.1623 5.04064 15.8584 5.04064V5.04247Z" fill="#FF8C09"/>
</svg>
