<svg width="124" height="130" viewBox="0 0 124 130" fill="none" xmlns="http://www.w3.org/2000/svg">
<path d="M96.2649 16.9151V113.085C96.2649 121.949 89.1002 129.114 80.2366 129.114H16.1231C7.25953 129.114 0.0947876 121.949 0.0947876 113.085V16.9151C0.0947876 8.05147 7.25953 0.886719 16.1231 0.886719H80.2366C89.0263 0.886719 96.2649 8.05147 96.2649 16.9151Z" fill="white"/>
<path d="M92.2024 16.9152C92.2024 10.2675 86.8104 4.87549 80.1627 4.87549H16.1231C9.47537 4.87549 4.08334 10.2675 4.08334 16.9152V113.085C4.08334 119.733 9.47537 125.125 16.1231 125.125H80.2365C86.8842 125.125 92.2763 119.733 92.2763 113.085V16.9152H92.2024Z" fill="#5D6AB0"/>
<path d="M80.2365 34.9377C80.2365 36.0456 79.3502 36.932 78.2422 36.932H18.1174C17.0095 36.932 16.1231 36.0456 16.1231 34.9377C16.1231 33.8297 17.0095 32.9434 18.1174 32.9434H78.1684C79.2763 32.9434 80.2365 33.8297 80.2365 34.9377Z" fill="white"/>
<path d="M80.2365 59.0173C80.2365 60.1252 79.3502 61.0116 78.2422 61.0116H18.1174C17.0095 61.0116 16.1231 60.1252 16.1231 59.0173C16.1231 57.9093 17.0095 57.0229 18.1174 57.0229H78.1684C79.2763 57.0229 80.2365 57.9093 80.2365 59.0173Z" fill="white"/>
<path d="M56.1571 83.0226C56.1571 84.1306 55.2707 85.0169 54.1628 85.0169H18.1174C17.0095 85.0169 16.1231 84.1306 16.1231 83.0226C16.1231 81.9147 17.0095 81.0283 18.1174 81.0283H54.1628C55.2707 81.0283 56.1571 81.9147 56.1571 83.0226Z" fill="white"/>
<path d="M70.7821 115.597C70.4866 115.597 70.1912 115.523 69.9696 115.375C69.4525 115.08 69.0832 114.489 69.0832 113.898L69.3048 96.3922C69.3048 93.9547 69.9696 91.5172 71.1514 89.1536L102.026 34.5685C103.282 32.3526 105.719 30.9492 108.305 30.9492C109.56 30.9492 110.742 31.2447 111.85 31.9094L119.68 36.2674C123.151 38.1878 124.333 42.6196 122.413 46.0174L91.6115 100.75C90.6513 102.375 88.9525 104.517 86.515 106.068L71.6684 115.375C71.373 115.523 71.0775 115.597 70.7821 115.597Z" fill="white"/>
<path d="M108.379 31.5401C109.487 31.5401 110.594 31.8355 111.629 32.4264L119.458 36.7844C122.634 38.5571 123.742 42.6196 121.969 45.7957L91.1684 100.528C89.9866 102.523 88.2877 104.369 86.2934 105.625L71.4469 114.932C71.2991 115.006 71.0776 115.08 70.856 115.08C70.6344 115.08 70.4866 115.006 70.3389 114.932C69.9696 114.71 69.748 114.341 69.748 113.972L69.9696 96.466C69.9696 94.0285 70.6344 91.7388 71.8162 89.5229L102.691 34.9378C103.799 32.7219 106.015 31.5401 108.379 31.5401ZM108.379 30.4321C105.572 30.4321 102.987 31.9094 101.657 34.3469L70.7821 88.9319C69.5264 91.3694 68.8616 93.8808 68.8616 96.466L68.6401 113.972C68.6401 114.784 69.0832 115.523 69.748 115.892C70.1173 116.114 70.4866 116.188 70.856 116.188C71.2991 116.188 71.6685 116.04 72.0378 115.892L86.8843 106.585C89.3957 105.034 91.1684 102.744 92.1286 101.119L122.93 46.3866C124.998 42.6935 123.668 37.9662 119.975 35.898L112.146 31.5401C110.964 30.7276 109.708 30.4321 108.379 30.4321Z" fill="white"/>
<path d="M98.1116 47.3466L113.623 56.0625L120.049 44.6876C121.231 42.5455 120.492 39.8864 118.35 38.7046L110.521 34.3467C108.379 33.1649 105.719 33.9035 104.39 36.0456L98.1116 47.3466Z" fill="#5D6AB0"/>
<path d="M73.6627 90.7046C72.6287 92.4773 72.1116 94.4716 72.1116 96.5398L71.89 112.051L85.0377 103.852C86.7366 102.744 88.2138 101.267 89.1741 99.4943L73.6627 90.7046Z" fill="#5D6AB0"/>
<path d="M95.8218 51.1138L73.7366 90.6307L89.1741 99.4204L111.333 59.8297L95.8218 51.1138Z" fill="#5D6AB0"/>
<path d="M89.174 101.562C88.8047 101.562 88.4354 101.488 88.0661 101.267L72.5548 92.551C71.5207 91.9601 71.1514 90.6306 71.7423 89.5965C72.3332 88.5624 73.6627 88.1931 74.6968 88.784L90.2081 97.4998C91.2422 98.0908 91.6115 99.4203 91.0206 100.454C90.7252 101.193 89.9865 101.562 89.174 101.562Z" fill="white"/>
</svg>
