<svg width="41" height="40" viewBox="0 0 41 40" fill="none" xmlns="http://www.w3.org/2000/svg">
<path d="M20.5 3.75C11.54 3.75 4.25 11.04 4.25 20C4.25 28.96 11.54 36.25 20.5 36.25C29.46 36.25 36.75 28.96 36.75 20C36.75 11.04 29.46 3.75 20.5 3.75ZM20.5 6.25C28.1087 6.25 34.25 12.3913 34.25 20C34.25 27.6087 28.1087 33.75 20.5 33.75C12.8913 33.75 6.75 27.6087 6.75 20C6.75 12.3913 12.8913 6.25 20.5 6.25ZM19.25 12.5V18.75H13V21.25H19.25V27.5H21.75V21.25H28V18.75H21.75V12.5H19.25Z" fill="#262626"/>
</svg>
