<svg width="114" height="141" viewBox="0 0 114 141" fill="none" xmlns="http://www.w3.org/2000/svg">
<path d="M15.7237 139.151C8.26097 139.151 2.25113 133.075 2.25113 125.678V25.0302C2.25113 17.5675 8.32701 11.5576 15.7237 11.5576H69.9443C77.4071 11.5576 83.4169 17.6335 83.4169 25.0302V125.678C83.4169 133.141 77.3411 139.151 69.9443 139.151H15.7237Z" fill="#5D6AB0"/>
<path d="M69.9443 13.4069C76.3504 13.4069 81.5677 18.6242 81.5677 25.0303V125.679C81.5677 132.085 76.3504 137.302 69.9443 137.302H15.7237C9.31761 137.302 4.10028 132.085 4.10028 125.679V25.0303C4.10028 18.6242 9.31761 13.4069 15.7237 13.4069H69.9443ZM69.9443 9.7085H15.7237C7.2703 9.7085 0.401917 16.5769 0.401917 25.0303V125.679C0.401917 134.132 7.2703 141 15.7237 141H69.9443C78.3977 141 85.2661 134.132 85.2661 125.679V25.0303C85.2661 16.5769 78.3977 9.7085 69.9443 9.7085Z" fill="white"/>
<path d="M25.6961 113.13H59.972" stroke="white" stroke-width="5.6459" stroke-miterlimit="10" stroke-linecap="round" stroke-linejoin="round"/>
<path d="M54.7547 87.5717C54.4905 87.5717 54.1603 87.5057 53.8961 87.3736L42.735 81.4959L31.5739 87.3736C31.3097 87.5057 30.9795 87.5717 30.7153 87.5717C30.3191 87.5717 29.9228 87.4397 29.5926 87.2415C28.9982 86.8453 28.7341 86.1188 28.8662 85.3923L30.9795 72.9764L21.9317 64.1928C21.4034 63.7305 21.2053 62.938 21.4694 62.2776C21.7336 61.6172 22.2619 61.0888 22.9884 61.0228L35.4704 59.1736L41.0179 47.8804C41.3481 47.22 42.0085 46.8237 42.669 46.8237C43.3954 46.8237 44.0558 47.22 44.32 47.8804L49.8676 59.1736L62.4816 60.8247C63.2081 60.8907 63.8025 61.419 64.0006 62.0795C64.1987 62.7399 64.0666 63.5324 63.5383 63.9947L54.2924 72.9764L56.4057 85.3923C56.5378 86.1188 56.2076 86.7792 55.6793 87.2415C55.5472 87.4397 55.1509 87.5717 54.7547 87.5717Z" fill="#5D6AB0"/>
<path d="M42.801 48.739L48.8108 60.8908L62.4155 62.6739L52.4431 72.3161L54.7546 85.7226L42.7349 79.3826L30.7152 85.7226L33.0267 72.3161L23.3185 62.872L36.7911 60.8908L42.801 48.739ZM42.801 44.9746C41.4141 44.9746 40.0932 45.7671 39.4328 47.0219L34.2815 57.4566L22.7241 59.1076C21.3373 59.3058 20.1485 60.2964 19.6862 61.6172C19.2239 62.9381 19.6202 64.457 20.6108 65.4477L28.9321 73.5048L26.9508 84.9962C26.6867 86.383 27.2811 87.836 28.4038 88.6285C29.0642 89.0908 29.7907 89.3549 30.5832 89.3549C31.1775 89.3549 31.7719 89.2228 32.3003 88.9587L42.6028 83.5432L52.9054 88.9587C53.4337 89.2228 54.0281 89.3549 54.6225 89.3549C55.415 89.3549 56.1415 89.0908 56.8019 88.6285C57.9246 87.7699 58.519 86.383 58.2548 84.9962L56.2736 73.5048L64.793 65.1835C65.8497 64.1929 66.1799 62.6739 65.7176 61.3531C65.2553 59.9662 64.0665 59.0416 62.6796 58.8435L51.0562 57.3245L45.9049 46.9559C45.5087 45.7671 44.1878 44.9746 42.801 44.9746Z" fill="white"/>
<path d="M86.653 52.1732C83.3509 52.1732 80.1808 50.7203 77.9354 48.2107C77.6712 48.2107 77.4731 48.2107 77.2089 48.2107C74.105 48.2107 71.1331 47.022 68.8876 44.7765C66.4441 42.399 65.2553 39.1629 65.4534 35.7948C62.9438 33.5494 61.4909 30.4454 61.4909 27.0112C61.4909 23.577 62.9438 20.473 65.4534 18.2276C65.2553 14.8594 66.4441 11.6234 68.8876 9.24584C71.067 7.00041 74.0389 5.81165 77.2089 5.81165C77.4071 5.81165 77.6712 5.81165 77.8694 5.81165C80.1148 3.30205 83.2188 1.84912 86.653 1.84912C90.0872 1.84912 93.1911 3.30205 95.4366 5.81165C95.6347 5.81165 95.8989 5.81165 96.163 5.81165C99.3331 5.81165 102.239 7.00041 104.484 9.24584C106.928 11.6234 108.117 14.8594 107.919 18.2276C110.428 20.473 111.881 23.577 111.881 27.0112C111.881 30.4454 110.428 33.5494 107.919 35.7948C108.117 39.1629 106.928 42.399 104.484 44.7765C102.305 46.9559 99.3331 48.2107 96.2291 48.2107C95.9649 48.2107 95.7668 48.2107 95.5026 48.2107C93.3232 50.7203 90.1532 52.1732 86.653 52.1732Z" fill="#5D6AB0"/>
<path d="M86.7189 3.7644C89.889 3.7644 92.7948 5.28337 94.71 7.79297C95.2384 7.72693 95.7007 7.66089 96.229 7.66089C98.8707 7.66089 101.314 8.71756 103.229 10.5667C105.475 12.8122 106.466 15.9162 106.003 19.0862C108.579 20.9354 110.032 23.8412 110.032 27.0773C110.032 30.3133 108.513 33.1532 106.003 35.0684C106.466 38.1724 105.475 41.2763 103.229 43.5878C101.38 45.437 98.8707 46.4937 96.2951 46.4937C95.7667 46.4937 95.3044 46.4276 94.7761 46.3616C92.9269 48.9372 89.955 50.3902 86.7189 50.3902C83.615 50.3902 80.6431 48.8712 78.8599 46.3616C78.3316 46.4276 77.8693 46.4937 77.341 46.4937C74.6993 46.4937 72.2557 45.437 70.3405 43.5878C68.0951 41.3424 67.1044 38.2384 67.5667 35.1344C64.9911 33.2852 63.5381 30.3794 63.5381 27.1433C63.5381 23.9073 65.0571 21.0674 67.5667 19.1522C67.1044 16.0482 68.0951 12.9443 70.3405 10.6328C72.1897 8.78361 74.6993 7.72693 77.341 7.72693C77.8693 7.72693 78.3316 7.79298 78.8599 7.85902C80.6431 5.21733 83.5489 3.7644 86.7189 3.7644ZM86.7189 0C83.0866 0 79.6524 1.38689 77.1428 3.89649C73.5105 3.89649 70.1424 5.34942 67.6328 7.85902C65.0571 10.4347 63.6702 13.8028 63.6702 17.3691C61.1606 19.8787 59.7737 23.2468 59.7737 26.9452C59.7737 30.5775 61.1606 34.0117 63.6702 36.5213C63.6702 40.0876 65.0571 43.4557 67.6328 46.0314C70.1424 48.607 73.5766 49.9939 77.1428 49.9939C79.6524 52.5035 83.0866 53.8904 86.5869 53.8904C90.2852 53.8904 93.7194 52.5035 96.229 49.9939C99.8613 49.9939 103.229 48.541 105.739 46.0314C108.315 43.4557 109.702 40.0876 109.702 36.5213C112.211 34.0117 113.598 30.6436 113.598 26.9452C113.598 23.3129 112.211 19.8787 109.702 17.3691C109.702 13.8028 108.315 10.4347 105.739 7.85902C103.229 5.34942 99.7953 3.89649 96.229 3.89649C93.7854 1.45293 90.4173 0 86.7189 0Z" fill="white"/>
<path d="M78.8599 27.8696L83.2847 32.4265L94.6439 21.6616" stroke="#5D6AB0" stroke-width="5.6459" stroke-miterlimit="10" stroke-linecap="round" stroke-linejoin="round"/>
</svg>
