<svg width="126" height="129" viewBox="0 0 126 129" fill="none" xmlns="http://www.w3.org/2000/svg">
<path d="M32.7203 49.7774C28.3218 49.7774 24.728 46.1835 24.728 41.7851V35.3483C24.728 30.9498 28.3218 27.356 32.7203 27.356H72.9502C73.8084 27.356 74.5057 28.0533 74.5057 28.9115V48.2219C74.5057 49.0801 73.8084 49.7774 72.9502 49.7774H32.7203Z" fill="#5D6AB0"/>
<path d="M72.9502 28.9118V48.2222H32.7203C29.1801 48.2222 26.2835 45.3256 26.2835 41.7854V35.3486C26.2835 31.8084 29.1801 28.9118 32.7203 28.9118H72.9502ZM72.9502 25.7471H32.7203C27.4636 25.7471 23.1188 30.0383 23.1188 35.3486V41.7854C23.1188 47.0421 27.41 51.3869 32.7203 51.3869H72.9502C74.6667 51.3869 76.0613 49.9923 76.0613 48.2222V28.9118C76.1149 27.1417 74.6667 25.7471 72.9502 25.7471Z" fill="white"/>
<path d="M42.3753 101.272C36.2067 101.272 31.1646 96.2301 31.1646 90.0615V51.4408C31.1646 50.5826 31.8619 49.8853 32.7201 49.8853H72.95C73.8082 49.8853 74.5056 50.5826 74.5056 51.4408V99.7167C74.5056 100.575 73.8082 101.272 72.95 101.272H42.3753Z" fill="#5D6AB0"/>
<path d="M72.9502 51.4406V99.7165H42.3755C37.0652 99.7165 32.7204 95.3717 32.7204 90.0613V51.4406H72.9502ZM72.9502 48.2759H32.7204C31.0039 48.2759 29.6093 49.6705 29.6093 51.387V90.0077C29.6093 97.0881 35.3487 102.828 42.4292 102.828H73.0039C74.7204 102.828 76.1686 101.433 76.1686 99.6628V51.387C76.115 49.6705 74.6667 48.2759 72.9502 48.2759Z" fill="white"/>
<path d="M50.4211 27.2492C43.3407 27.2492 37.6012 21.5098 37.6012 14.4293C37.6012 7.34884 43.3407 1.60938 50.4211 1.60938H51.0112C55.6778 1.60938 59.9154 3.96953 62.3828 7.93888L73.0035 24.8891C73.3253 25.3718 73.3253 25.9619 73.0571 26.4983C72.7889 27.0347 72.2525 27.3029 71.6625 27.3029H50.4211V27.2492Z" fill="#5D6AB0"/>
<path d="M51.0114 3.16475C55.088 3.16475 58.8965 5.25671 61.0957 8.7433L71.7164 25.6935H50.475C44.2528 25.6935 39.2106 20.6513 39.2106 14.4291C39.2106 8.2069 44.2528 3.16475 50.475 3.16475H51.0114ZM51.0114 0H50.4214C42.4827 0 35.9922 6.43678 35.9922 14.4291C35.9922 22.4215 42.429 28.8582 50.4214 28.8582H71.6627C72.7892 28.8582 73.862 28.2146 74.3984 27.249C74.9348 26.2299 74.9348 25.0498 74.2911 24.0843L63.6704 7.1341C60.9884 2.62835 56.2145 0 51.0114 0Z" fill="white"/>
<path d="M76.1685 49.7774C75.3102 49.7774 74.6129 49.0801 74.6129 48.2219V28.9115C74.6129 28.0533 75.3102 27.356 76.1685 27.356H116.398C120.797 27.356 124.391 30.9498 124.391 35.3483V41.7851C124.391 46.1835 120.797 49.7774 116.398 49.7774H76.1685Z" fill="#5D6AB0"/>
<path d="M116.399 28.9118C119.939 28.9118 122.835 31.8084 122.835 35.3486V41.7854C122.835 45.3256 119.939 48.2222 116.399 48.2222H76.1687V28.9118H116.399ZM116.399 25.7471H76.1687C74.4522 25.7471 73.0576 27.1417 73.0576 28.9118V48.2222C73.0576 49.9386 74.4522 51.3869 76.1687 51.3869H116.399C121.655 51.3869 126 47.0957 126 41.7854V35.3486C126 30.0383 121.709 25.7471 116.399 25.7471Z" fill="white"/>
<path d="M76.1684 101.272C75.3102 101.272 74.6129 100.575 74.6129 99.7167V51.4408C74.6129 50.5826 75.3102 49.8853 76.1684 49.8853H116.398C117.257 49.8853 117.954 50.5826 117.954 51.4408V90.0615C117.954 96.2301 112.912 101.272 106.743 101.272H76.1684Z" fill="#5D6AB0"/>
<path d="M116.398 51.4406V90.0613C116.398 95.3717 112.054 99.7165 106.743 99.7165H76.1685V51.4406H116.398ZM116.398 48.2759H76.1685C74.4521 48.2759 73.0038 49.6705 73.0038 51.387V99.6628C73.0038 101.379 74.3984 102.828 76.1685 102.828H106.743C113.824 102.828 119.563 97.0881 119.563 90.0077V51.387C119.563 49.6705 118.169 48.2759 116.398 48.2759Z" fill="white"/>
<path d="M77.456 27.2492C76.8659 27.2492 76.3832 26.9273 76.0613 26.4446C75.7395 25.9618 75.7931 25.3181 76.115 24.8354L86.7357 7.88516C89.2031 3.91582 93.4943 1.55566 98.1073 1.55566H98.6973C105.778 1.55566 111.517 7.29513 111.517 14.3756C111.517 21.4561 105.778 27.1955 98.6973 27.1955H77.456V27.2492Z" fill="#5D6AB0"/>
<path d="M98.6974 3.16475C104.92 3.16475 109.962 8.2069 109.962 14.4291C109.962 20.6513 104.92 25.6935 98.6974 25.6935H77.456L88.0767 8.7433C90.276 5.25671 94.0307 3.16475 98.161 3.16475H98.6974ZM98.6974 0H98.1074C92.9043 0 88.1304 2.62835 85.3947 7.02682L74.774 23.977C74.184 24.9425 74.1304 26.1762 74.6668 27.1418C75.2032 28.1609 76.276 28.751 77.4024 28.751H98.6438C106.582 28.751 113.073 22.3142 113.073 14.3218C113.073 6.3295 106.636 0 98.6974 0Z" fill="white"/>
<path d="M29.77 127.073C28.0536 127.073 26.498 126.429 25.2643 125.195L3.3256 102.774C0.911803 100.306 0.965443 96.3371 3.43288 93.9233L34.8122 63.2413C35.9923 62.0612 37.5478 61.4712 39.2107 61.4712C40.9271 61.4712 42.4827 62.1149 43.7164 63.3486L51.0114 70.8045C51.3333 71.1264 51.4942 71.6091 51.4405 72.0919C51.3869 72.5746 51.1187 72.9501 50.7432 73.2183C50.5287 73.3792 50.3677 73.4865 50.2068 73.6474C49.5095 74.3448 49.0804 75.3103 49.0804 76.3294C49.0804 77.3486 49.4559 78.3141 50.1532 79.0114C50.8505 79.7624 51.816 80.1379 52.8352 80.1379C53.8543 80.1379 54.7662 79.7624 55.4635 79.0651C55.6244 78.9041 55.7854 78.7432 55.9463 78.5287C56.2145 78.1532 56.6436 77.885 57.1264 77.885C57.18 77.885 57.2336 77.885 57.2336 77.885C57.6628 77.885 58.0382 78.0459 58.3601 78.3677L65.6551 85.8237C66.8352 87.0038 67.4789 88.613 67.4252 90.2758C67.4252 91.9386 66.7279 93.4942 65.5478 94.6743L34.1685 125.356C32.9884 126.429 31.4329 127.073 29.77 127.073Z" fill="#5D6AB0"/>
<path d="M39.2107 63.0266C40.4444 63.0266 41.6782 63.5093 42.59 64.4212L49.8851 71.8771C49.6169 72.0381 49.3487 72.2526 49.0805 72.5208C46.9885 74.6128 46.9349 77.9921 48.9732 80.084C50.046 81.1568 51.387 81.6932 52.7816 81.6932C54.1226 81.6932 55.4636 81.2105 56.5364 80.1913C56.8046 79.9231 57.0192 79.7086 57.1801 79.3867L61.2031 83.4633L62.2759 84.5898L63.2414 85.5553L64.4751 86.8426C66.2989 88.72 66.2452 91.6702 64.4215 93.494L33.0421 124.176C32.1303 125.088 30.9502 125.517 29.7701 125.517C28.5364 125.517 27.3563 125.034 26.3908 124.122L25.1571 122.835L24.1916 121.869L23.1188 120.743L16.5211 114.038L4.45211 101.701C2.62835 99.8235 2.68199 96.8733 4.50575 95.0495L35.8851 64.3676C36.8506 63.4557 38.0307 63.0266 39.2107 63.0266ZM39.2107 59.8618C37.1724 59.8618 35.1877 60.6664 33.7395 62.1147L2.36015 92.7967C0.858236 94.245 0.0536398 96.2296 0 98.3216C0 100.414 0.750956 102.398 2.25287 103.9L14.3218 116.237L20.9195 122.942L21.9923 124.069L22.9579 125.034L24.1916 126.322C25.6935 127.823 27.6782 128.682 29.7701 128.682C31.8084 128.682 33.7931 127.877 35.2414 126.429L66.6207 95.7469C68.1226 94.2986 68.9809 92.3139 68.9809 90.222C68.9809 88.13 68.2299 86.1453 66.728 84.6434L65.4943 83.3561L64.5287 82.3905L63.4559 81.2641L59.4329 77.1875C58.8429 76.5974 58.0383 76.222 57.1801 76.222C57.0728 76.222 57.0192 76.222 56.9119 76.222C56 76.2756 55.1418 76.812 54.6054 77.563C54.4981 77.6702 54.4444 77.7775 54.3372 77.8848C53.908 78.3139 53.3716 78.5285 52.7816 78.5285C52.1916 78.5285 51.6015 78.3139 51.1724 77.8848C50.3142 77.0266 50.3142 75.6319 51.2261 74.7737C51.3333 74.6664 51.4406 74.6128 51.5479 74.5055C52.3525 73.9691 52.8353 73.1645 52.9425 72.199C53.0498 71.2871 52.728 70.3216 52.0843 69.6779L44.7893 62.222C43.341 60.7201 41.3563 59.8618 39.2107 59.8618Z" fill="white"/>
<path d="M55.7317 101.969L51.9769 98.1606C51.3333 97.5169 51.3333 96.4441 51.9769 95.8004C52.6206 95.1568 53.6934 95.1568 54.3371 95.8004L58.0919 99.6089L55.7317 101.969ZM29.6628 70.4824L33.3103 74.2372C33.954 74.8809 33.954 75.9537 33.3103 76.5974C32.6666 77.241 31.5938 77.241 30.9501 76.5974L27.3026 72.8426L29.6628 70.4824ZM35.4022 81.1568C34.7585 80.5131 34.7585 79.4403 35.4022 78.7966C36.0459 78.1529 37.1187 78.1529 37.7624 78.7966L41.5708 82.7123C42.2145 83.356 42.2145 84.4288 41.5708 85.0725C40.9271 85.7161 39.8543 85.7161 39.2107 85.0725L35.4022 81.1568ZM43.7164 89.6319C43.0727 88.9882 43.0727 87.9154 43.7164 87.2717C44.3601 86.628 45.4329 86.628 46.0766 87.2717L49.885 91.1874C50.5287 91.8311 50.5287 92.9039 49.885 93.5476C49.2413 94.1912 48.1685 94.1912 47.5248 93.5476L43.7164 89.6319Z" fill="white"/>
<path d="M31.3256 110.82C30.8428 110.82 30.3601 110.552 30.0382 110.176L26.9808 105.831L21.6704 105.885C21.0804 105.885 20.544 105.563 20.2758 105.027C20.0076 104.49 20.0612 103.847 20.4367 103.364L23.6551 99.1265L21.9923 94.0843C21.7777 93.4943 21.9386 92.9042 22.3677 92.4751C22.6896 92.1533 23.0651 92.046 23.4942 92.046C23.6551 92.046 23.816 92.0996 24.0306 92.1533L29.0191 93.8697L33.3103 90.5977C33.5785 90.3832 33.9003 90.2759 34.2758 90.2759C34.544 90.2759 34.7585 90.3295 34.9731 90.4368C35.5095 90.705 35.8313 91.2414 35.8313 91.8851L35.7241 97.3563L40.0689 100.467C40.5516 100.789 40.8198 101.433 40.7126 102.023C40.6053 102.613 40.1762 103.096 39.6398 103.257L34.544 104.812L32.9348 109.908C32.7739 110.498 32.2911 110.874 31.7011 110.981C31.4865 110.82 31.3792 110.82 31.3256 110.82Z" fill="#5D6AB0"/>
<path d="M34.1685 91.7239L34.0613 97.9998L39.0498 101.594L33.1494 103.364L31.272 109.21L27.7317 104.168L21.6168 104.222L25.318 99.2871L23.3869 93.4404L29.18 95.4251L34.1685 91.7239ZM34.1685 88.6128H34.1149C33.4176 88.6128 32.7739 88.881 32.2375 89.2565L28.6436 91.9921L24.4061 90.5438C24.0842 90.4366 23.7088 90.3829 23.3869 90.3829C22.5823 90.3829 21.7777 90.7047 21.1877 91.2948C20.3295 92.153 20.0613 93.3867 20.4367 94.5132L21.885 98.8044L19.1494 102.398C18.4521 103.364 18.2911 104.651 18.8812 105.724C19.4176 106.797 20.4904 107.44 21.6704 107.44C21.6704 107.44 21.6704 107.44 21.7241 107.44L26.2298 107.387L28.8045 111.088C29.3946 111.946 30.3601 112.429 31.3793 112.429C31.5402 112.429 31.7011 112.429 31.862 112.375C33.0421 112.214 34.0076 111.356 34.3831 110.23L35.7241 105.938L40.0153 104.597C41.1417 104.222 41.9999 103.256 42.2145 102.076C42.4291 100.896 41.8927 99.7162 40.9272 99.0189L37.2796 96.3906L37.3869 91.8848C37.3869 91.8312 37.3869 91.7775 37.3869 91.7239C37.2796 90.0074 35.885 88.6128 34.1685 88.6128Z" fill="white"/>
</svg>
