<svg width="32" height="32" viewBox="0 0 32 32" fill="none" xmlns="http://www.w3.org/2000/svg">
<g clip-path="url(#clip0_200_4)">
<path d="M7.90198 0.295898H24.5876C28.6532 0.295898 31.949 3.59168 31.949 7.65722V24.3429C31.949 28.4084 28.6532 31.7042 24.5876 31.7042H7.90198C3.83643 31.7042 0.540649 28.4084 0.540649 24.3429V7.65722C0.540649 3.59168 3.83643 0.295898 7.90198 0.295898Z" fill="black"/>
<path d="M7.90198 0.295898H24.5876C28.6532 0.295898 31.949 3.59168 31.949 7.65722V24.3429C31.949 28.4084 28.6532 31.7042 24.5876 31.7042H7.90198C3.83643 31.7042 0.540649 28.4084 0.540649 24.3429V7.65722C0.540649 3.59168 3.83643 0.295898 7.90198 0.295898Z" fill="#F0A48D"/>
<path d="M7.46373 11.5112C7.45024 11.7059 7.45024 11.9006 7.45024 12.0971C7.45024 18.084 12.0079 24.9886 20.3418 24.9886V24.985C22.8037 24.9885 25.2147 24.2834 27.2868 22.9539C26.9288 22.9969 26.5691 23.0184 26.2084 23.0192C24.1679 23.0208 22.186 22.3364 20.5814 21.076C21.5268 21.0581 22.443 20.7452 23.202 20.1811C23.9609 19.617 24.5245 18.8298 24.8141 17.9296C24.1353 18.0605 23.4355 18.0338 22.7687 17.8516C24.8824 17.4245 26.4031 15.5674 26.4031 13.4105V13.3531C25.773 13.7041 25.0678 13.8985 24.3468 13.9202C26.3376 12.5896 26.9513 9.94111 25.7491 7.87037C24.6117 9.27013 23.1924 10.4149 21.5837 11.2305C19.9749 12.046 18.2126 12.5139 16.4112 12.6039C16.5908 11.8308 16.5643 11.0241 16.3342 10.2644C16.1042 9.50474 15.6788 8.81878 15.1005 8.27512C13.2756 6.55969 10.4056 6.64766 8.69013 8.47155C7.6755 8.27122 6.70248 7.89925 5.81296 7.37164C6.1512 8.42071 6.859 9.31119 7.80469 9.87744C6.90652 9.77162 6.02941 9.5312 5.20283 9.16425C5.81087 10.0748 6.5765 10.8695 7.46373 11.5112Z" fill="#2D2D2D"/>
</g>
<defs>
<clipPath id="clip0_200_4">
<rect width="31.4083" height="31.4083" fill="white" transform="matrix(-1 0 0 1 31.949 0.295898)"/>
</clipPath>
</defs>
</svg>
