<svg width="39" height="28" viewBox="0 0 39 28" fill="none" xmlns="http://www.w3.org/2000/svg">
<path d="M37.9314 4.90501C37.7144 4.10337 37.2913 3.37255 36.704 2.78533C36.1168 2.19812 35.3859 1.775 34.5843 1.55811C31.6493 0.757812 19.8382 0.757812 19.8382 0.757812C19.8382 0.757812 8.02671 0.782099 5.09221 1.58239C4.2906 1.79932 3.5598 2.22245 2.97259 2.80967C2.38537 3.39688 1.96224 4.12768 1.74531 4.92929C0.857586 10.1439 0.513181 18.0893 1.7696 23.0951C1.98652 23.8967 2.40966 24.6275 2.99687 25.2147C3.58409 25.8019 4.31489 26.225 5.1165 26.442C8.05122 27.2423 19.8625 27.2423 19.8625 27.2423C19.8625 27.2423 31.6738 27.2423 34.6085 26.442C35.4102 26.225 36.141 25.8019 36.7282 25.2147C37.3154 24.6275 37.7385 23.8967 37.9554 23.0951C38.8915 17.8733 39.1802 9.93276 37.9312 4.90524L37.9314 4.90501Z" fill="#F0A48D"/>
<path d="M16.0789 19.6753L25.8772 14.0001L16.0789 8.32471V19.6753Z" fill="#2D2D2D"/>
</svg>
